<svg width="31" height="33" viewBox="0 0 31 33" fill="none" xmlns="http://www.w3.org/2000/svg">
<path d="M28 0H0V29H28V0Z" fill="white"/>
<path d="M30 0H1C0.447715 0 0 0.447715 0 1V32C0 32.5523 0.447715 33 1 33H30C30.5523 33 31 32.5523 31 32V1C31 0.447715 30.5523 0 30 0Z" fill="#F7F7FA"/>
<path d="M13.972 20.481C13.8638 20.583 13.7207 20.6399 13.572 20.6399C13.4233 20.6399 13.2802 20.583 13.172 20.481L10 17.46C9.92202 17.3875 9.85982 17.2996 9.81729 17.202C9.77476 17.1044 9.75281 16.999 9.75281 16.8925C9.75281 16.786 9.77476 16.6806 9.81729 16.583C9.85982 16.4854 9.92202 16.3975 10 16.325L10.4 15.947C10.5619 15.7959 10.7751 15.7118 10.9965 15.7118C11.218 15.7118 11.4312 15.7959 11.593 15.947L13.574 17.833L18.933 12.733C19.0949 12.5819 19.3081 12.4978 19.5295 12.4978C19.751 12.4978 19.9642 12.5819 20.126 12.733L20.526 13.111C20.604 13.1835 20.6662 13.2714 20.7087 13.369C20.7513 13.4666 20.7732 13.572 20.7732 13.6785C20.7732 13.785 20.7513 13.8904 20.7087 13.988C20.6662 14.0856 20.604 14.1735 20.526 14.246L13.972 20.481Z" fill="#FF5A3C"/>
</svg>
