<svg width="31" height="34" viewBox="0 0 31 34" fill="none" xmlns="http://www.w3.org/2000/svg">
<path d="M28 0.519043H0V29.519H28V0.519043Z" fill="white"/>
<path d="M30 0.519043H1C0.447715 0.519043 0 0.966758 0 1.51904V32.519C0 33.0713 0.447715 33.519 1 33.519H30C30.5523 33.519 31 33.0713 31 32.519V1.51904C31 0.966758 30.5523 0.519043 30 0.519043Z" fill="#FF5A3C"/>
<path d="M13.972 21C13.8638 21.1021 13.7207 21.1589 13.572 21.1589C13.4233 21.1589 13.2802 21.1021 13.172 21L10 17.979C9.92202 17.9065 9.85982 17.8187 9.81729 17.721C9.77476 17.6234 9.75281 17.518 9.75281 17.4115C9.75281 17.305 9.77476 17.1997 9.81729 17.102C9.85982 17.0044 9.92202 16.9166 10 16.844L10.4 16.466C10.5619 16.3149 10.7751 16.2308 10.9965 16.2308C11.218 16.2308 11.4312 16.3149 11.593 16.466L13.574 18.352L18.933 13.252C19.0949 13.1009 19.3081 13.0168 19.5295 13.0168C19.751 13.0168 19.9642 13.1009 20.126 13.252L20.526 13.63C20.604 13.7026 20.6662 13.7904 20.7087 13.888C20.7513 13.9857 20.7732 14.091 20.7732 14.1975C20.7732 14.304 20.7513 14.4094 20.7087 14.507C20.6662 14.6047 20.604 14.6925 20.526 14.765L13.972 21Z" fill="white"/>
</svg>
