<svg width="7" height="13" viewBox="0 0 7 13" fill="none" xmlns="http://www.w3.org/2000/svg">
<path d="M5.09344 2.82401H6.70182C6.84979 2.82401 6.96988 2.71084 6.96988 2.57141V1.05582C6.96988 0.916387 6.84979 0.803223 6.70182 0.803223H5.09344C3.46791 0.803223 2.14475 2.04954 2.14475 3.5818V5.34999H0.268307C0.120336 5.34999 0.000244141 5.46315 0.000244141 5.60258V7.11817C0.000244141 7.25761 0.120336 7.37077 0.268307 7.37077H2.14475V12.6753C2.14475 12.8148 2.26484 12.9279 2.41281 12.9279H4.02119C4.16916 12.9279 4.28925 12.8148 4.28925 12.6753V7.37077H6.16569C6.28096 7.37077 6.38336 7.30105 6.42035 7.19799L6.95648 5.6824C6.98382 5.60561 6.96988 5.52074 6.91949 5.45456C6.86856 5.38889 6.78814 5.34999 6.70182 5.34999H4.28925V3.5818C4.28925 3.164 4.65007 2.82401 5.09344 2.82401Z" fill="#FF5A3C"/>
</svg>
