<svg width="15" height="11" viewBox="0 0 15 11" fill="none" xmlns="http://www.w3.org/2000/svg">
<path d="M10.0092 5.43729L14.999 8.76114V1.98413L10.0092 5.43729Z" fill="#FF5A3C"/>
<path d="M0.199005 1.97931V8.75632L5.18882 5.43247L0.199005 1.97931Z" fill="#FF5A3C"/>
<path d="M14.0752 -0.00012207H1.12466C0.901117 0.00585608 0.68724 0.0930033 0.522413 0.245242C0.357586 0.39748 0.252905 0.604564 0.227646 0.828389L7.60054 5.93853L14.9734 0.828389C14.9477 0.60456 14.8426 0.397598 14.6777 0.245429C14.5127 0.0932603 14.2988 0.00607475 14.0752 -0.00012207Z" fill="#FF5A3C"/>
<path d="M9.16238 6.032L7.85351 6.93805C7.77885 6.99018 7.69016 7.0181 7.59932 7.01808C7.50841 7.0185 7.41961 6.99054 7.34512 6.93805L6.03504 6.03076L0.227646 9.88892C0.25451 10.1112 0.359727 10.3164 0.52414 10.4671C0.688553 10.6178 0.901228 10.704 1.12344 10.71H14.0776C14.2999 10.7043 14.5127 10.6181 14.6772 10.4674C14.8417 10.3166 14.9468 10.1113 14.9734 9.88892L9.16238 6.032Z" fill="#FF5A3C"/>
</svg>
