<svg width="16" height="17" viewBox="0 0 16 17" fill="none" xmlns="http://www.w3.org/2000/svg">
<path d="M5.15228 5.40234C5.94916 4.60547 6.9101 4.20703 8.0351 4.20703C9.1601 4.20703 10.1093 4.60547 10.8828 5.40234C11.6796 6.17578 12.0781 7.125 12.0781 8.25C12.0781 9.375 11.6796 10.3359 10.8828 11.1328C10.1093 11.9062 9.1601 12.293 8.0351 12.293C6.9101 12.293 5.94916 11.9062 5.15228 11.1328C4.37885 10.3359 3.99213 9.375 3.99213 8.25C3.99213 7.125 4.37885 6.17578 5.15228 5.40234ZM6.17181 10.1133C6.68744 10.6289 7.30853 10.8867 8.0351 10.8867C8.76166 10.8867 9.38275 10.6289 9.89838 10.1133C10.414 9.59766 10.6718 8.97656 10.6718 8.25C10.6718 7.52344 10.414 6.90234 9.89838 6.38672C9.38275 5.87109 8.76166 5.61328 8.0351 5.61328C7.30853 5.61328 6.68744 5.87109 6.17181 6.38672C5.65619 6.90234 5.39838 7.52344 5.39838 8.25C5.39838 8.97656 5.65619 9.59766 6.17181 10.1133ZM12.8867 3.39844C13.0742 3.5625 13.1679 3.77344 13.1679 4.03125C13.1679 4.28906 13.0742 4.51172 12.8867 4.69922C12.7226 4.88672 12.5117 4.98047 12.2538 4.98047C11.996 4.98047 11.7734 4.88672 11.5859 4.69922C11.3984 4.51172 11.3046 4.28906 11.3046 4.03125C11.3046 3.77344 11.3984 3.5625 11.5859 3.39844C11.7734 3.21094 11.996 3.11719 12.2538 3.11719C12.5117 3.11719 12.7226 3.21094 12.8867 3.39844ZM15.8749 5.01562C15.8984 5.64844 15.9101 6.72656 15.9101 8.25C15.9101 9.77344 15.8984 10.8516 15.8749 11.4844C15.8046 12.9141 15.371 14.0273 14.5742 14.8242C13.8007 15.5977 12.6992 16.0078 11.2695 16.0547C10.6367 16.1016 9.55853 16.125 8.0351 16.125C6.51166 16.125 5.43353 16.1016 4.80072 16.0547C3.37103 15.9844 2.25775 15.5625 1.46088 14.7891C0.687439 14.0156 0.277283 12.9141 0.230408 11.4844C0.183533 10.8516 0.160095 9.77344 0.160095 8.25C0.160095 6.72656 0.183533 5.63672 0.230408 4.98047C0.30072 3.57422 0.722595 2.48438 1.49603 1.71094C2.26947 0.914062 3.37103 0.480469 4.80072 0.410156C5.43353 0.386719 6.51166 0.375 8.0351 0.375C9.55853 0.375 10.6367 0.386719 11.2695 0.410156C12.6992 0.480469 13.8007 0.914062 14.5742 1.71094C15.371 2.48438 15.8046 3.58594 15.8749 5.01562ZM14.1874 12.8906C14.2578 12.7031 14.3163 12.4688 14.3632 12.1875C14.4101 11.8828 14.4453 11.5312 14.4687 11.1328C14.4921 10.7109 14.5038 10.3711 14.5038 10.1133C14.5038 9.85547 14.5038 9.49219 14.5038 9.02344C14.5038 8.55469 14.5038 8.29688 14.5038 8.25C14.5038 8.17969 14.5038 7.92188 14.5038 7.47656C14.5038 7.00781 14.5038 6.64453 14.5038 6.38672C14.5038 6.12891 14.4921 5.80078 14.4687 5.40234C14.4453 4.98047 14.4101 4.62891 14.3632 4.34766C14.3163 4.04297 14.2578 3.79687 14.1874 3.60938C13.9062 2.88281 13.4023 2.37891 12.6757 2.09766C12.4882 2.02734 12.2421 1.96875 11.9374 1.92188C11.6562 1.875 11.3046 1.83984 10.8828 1.81641C10.4843 1.79297 10.1562 1.78125 9.89838 1.78125C9.664 1.78125 9.30072 1.78125 8.80853 1.78125C8.33978 1.78125 8.08197 1.78125 8.0351 1.78125C7.98822 1.78125 7.73041 1.78125 7.26166 1.78125C6.79291 1.78125 6.42963 1.78125 6.17181 1.78125C5.914 1.78125 5.57416 1.79297 5.15228 1.81641C4.75385 1.83984 4.40228 1.875 4.0976 1.92188C3.81635 1.96875 3.58197 2.02734 3.39447 2.09766C2.66791 2.37891 2.164 2.88281 1.88275 3.60938C1.81244 3.79687 1.75385 4.04297 1.70697 4.34766C1.6601 4.62891 1.62494 4.98047 1.6015 5.40234C1.57806 5.80078 1.56635 6.12891 1.56635 6.38672C1.56635 6.62109 1.56635 6.98438 1.56635 7.47656C1.56635 7.94531 1.56635 8.20312 1.56635 8.25C1.56635 8.29688 1.56635 8.55469 1.56635 9.02344C1.56635 9.49219 1.56635 9.85547 1.56635 10.1133C1.56635 10.3711 1.57806 10.7109 1.6015 11.1328C1.62494 11.5312 1.6601 11.8828 1.70697 12.1875C1.75385 12.4688 1.81244 12.7031 1.88275 12.8906C2.18744 13.6172 2.69135 14.1211 3.39447 14.4023C3.58197 14.4727 3.81635 14.5312 4.0976 14.5781C4.40228 14.625 4.75385 14.6602 5.15228 14.6836C5.57416 14.707 5.90228 14.7188 6.13666 14.7188C6.39447 14.7188 6.75775 14.7188 7.2265 14.7188C7.71869 14.7188 7.98822 14.7188 8.0351 14.7188C8.10541 14.7188 8.36322 14.7188 8.80853 14.7188C9.27728 14.7188 9.64056 14.7188 9.89838 14.7188C10.1562 14.7188 10.4843 14.707 10.8828 14.6836C11.3046 14.6602 11.6562 14.625 11.9374 14.5781C12.2421 14.5312 12.4882 14.4727 12.6757 14.4023C13.4023 14.0977 13.9062 13.5938 14.1874 12.8906Z" fill="black" fill-opacity="0.9"/>
</svg>
