<svg width="16" height="17" viewBox="0 0 16 17" fill="none" xmlns="http://www.w3.org/2000/svg">
<path d="M5.06409 5.4023C5.86096 4.60542 6.8219 4.20699 7.9469 4.20699C9.0719 4.20699 10.0211 4.60542 10.7946 5.4023C11.5914 6.17574 11.9899 7.12495 11.9899 8.24995C11.9899 9.37495 11.5914 10.3359 10.7946 11.1328C10.0211 11.9062 9.0719 12.2929 7.9469 12.2929C6.8219 12.2929 5.86096 11.9062 5.06409 11.1328C4.29065 10.3359 3.90393 9.37495 3.90393 8.24995C3.90393 7.12495 4.29065 6.17574 5.06409 5.4023ZM6.08362 10.1132C6.59924 10.6289 7.22034 10.8867 7.9469 10.8867C8.67346 10.8867 9.29456 10.6289 9.81018 10.1132C10.3258 9.59761 10.5836 8.97652 10.5836 8.24995C10.5836 7.52339 10.3258 6.9023 9.81018 6.38667C9.29456 5.87105 8.67346 5.61324 7.9469 5.61324C7.22034 5.61324 6.59924 5.87105 6.08362 6.38667C5.56799 6.9023 5.31018 7.52339 5.31018 8.24995C5.31018 8.97652 5.56799 9.59761 6.08362 10.1132ZM12.7985 3.39839C12.986 3.56245 13.0797 3.77339 13.0797 4.0312C13.0797 4.28902 12.986 4.51167 12.7985 4.69917C12.6344 4.88667 12.4235 4.98042 12.1656 4.98042C11.9078 4.98042 11.6852 4.88667 11.4977 4.69917C11.3102 4.51167 11.2164 4.28902 11.2164 4.0312C11.2164 3.77339 11.3102 3.56245 11.4977 3.39839C11.6852 3.21089 11.9078 3.11714 12.1656 3.11714C12.4235 3.11714 12.6344 3.21089 12.7985 3.39839ZM15.7867 5.01558C15.8102 5.64839 15.8219 6.72652 15.8219 8.24995C15.8219 9.77339 15.8102 10.8515 15.7867 11.4843C15.7164 12.914 15.2828 14.0273 14.486 14.8242C13.7125 15.5976 12.611 16.0078 11.1813 16.0546C10.5485 16.1015 9.47034 16.125 7.9469 16.125C6.42346 16.125 5.34534 16.1015 4.71252 16.0546C3.28284 15.9843 2.16956 15.5625 1.37268 14.789C0.599243 14.0156 0.189087 12.914 0.142212 11.4843C0.0953369 10.8515 0.0718994 9.77339 0.0718994 8.24995C0.0718994 6.72652 0.0953369 5.63667 0.142212 4.98042C0.212524 3.57417 0.634399 2.48433 1.40784 1.71089C2.18127 0.914017 3.28284 0.480423 4.71252 0.41011C5.34534 0.386673 6.42346 0.374954 7.9469 0.374954C9.47034 0.374954 10.5485 0.386673 11.1813 0.41011C12.611 0.480423 13.7125 0.914017 14.486 1.71089C15.2828 2.48433 15.7164 3.58589 15.7867 5.01558ZM14.0992 12.8906C14.1696 12.7031 14.2281 12.4687 14.275 12.1875C14.3219 11.8828 14.3571 11.5312 14.3805 11.1328C14.4039 10.7109 14.4156 10.371 14.4156 10.1132C14.4156 9.85542 14.4156 9.49214 14.4156 9.02339C14.4156 8.55464 14.4156 8.29683 14.4156 8.24995C14.4156 8.17964 14.4156 7.92183 14.4156 7.47652C14.4156 7.00777 14.4156 6.64449 14.4156 6.38667C14.4156 6.12886 14.4039 5.80074 14.3805 5.4023C14.3571 4.98042 14.3219 4.62886 14.275 4.34761C14.2281 4.04292 14.1696 3.79683 14.0992 3.60933C13.818 2.88277 13.3141 2.37886 12.5875 2.09761C12.4 2.0273 12.1539 1.9687 11.8492 1.92183C11.568 1.87495 11.2164 1.8398 10.7946 1.81636C10.3961 1.79292 10.068 1.7812 9.81018 1.7812C9.57581 1.7812 9.21252 1.7812 8.72034 1.7812C8.25159 1.7812 7.99377 1.7812 7.9469 1.7812C7.90002 1.7812 7.64221 1.7812 7.17346 1.7812C6.70471 1.7812 6.34143 1.7812 6.08362 1.7812C5.82581 1.7812 5.48596 1.79292 5.06409 1.81636C4.66565 1.8398 4.31409 1.87495 4.0094 1.92183C3.72815 1.9687 3.49377 2.0273 3.30627 2.09761C2.57971 2.37886 2.07581 2.88277 1.79456 3.60933C1.72424 3.79683 1.66565 4.04292 1.61877 4.34761C1.5719 4.62886 1.53674 4.98042 1.51331 5.4023C1.48987 5.80074 1.47815 6.12886 1.47815 6.38667C1.47815 6.62105 1.47815 6.98433 1.47815 7.47652C1.47815 7.94527 1.47815 8.20308 1.47815 8.24995C1.47815 8.29683 1.47815 8.55464 1.47815 9.02339C1.47815 9.49214 1.47815 9.85542 1.47815 10.1132C1.47815 10.371 1.48987 10.7109 1.51331 11.1328C1.53674 11.5312 1.5719 11.8828 1.61877 12.1875C1.66565 12.4687 1.72424 12.7031 1.79456 12.8906C2.09924 13.6171 2.60315 14.121 3.30627 14.4023C3.49377 14.4726 3.72815 14.5312 4.0094 14.5781C4.31409 14.625 4.66565 14.6601 5.06409 14.6835C5.48596 14.707 5.81409 14.7187 6.04846 14.7187C6.30627 14.7187 6.66956 14.7187 7.13831 14.7187C7.63049 14.7187 7.90002 14.7187 7.9469 14.7187C8.01721 14.7187 8.27502 14.7187 8.72034 14.7187C9.18909 14.7187 9.55237 14.7187 9.81018 14.7187C10.068 14.7187 10.3961 14.707 10.7946 14.6835C11.2164 14.6601 11.568 14.625 11.8492 14.5781C12.1539 14.5312 12.4 14.4726 12.5875 14.4023C13.3141 14.0976 13.818 13.5937 14.0992 12.8906Z" fill="white"/>
</svg>
