<svg width="14" height="14" viewBox="0 0 14 14" fill="none" xmlns="http://www.w3.org/2000/svg">
<path d="M7.24414 4.00586C5.36914 4.00586 3.875 5.5293 3.875 7.375C3.875 9.25 5.36914 10.7441 7.24414 10.7441C9.08984 10.7441 10.6133 9.25 10.6133 7.375C10.6133 5.5293 9.08984 4.00586 7.24414 4.00586ZM7.24414 9.57227C6.04297 9.57227 5.04688 8.60547 5.04688 7.375C5.04688 6.17383 6.01367 5.20703 7.24414 5.20703C8.44531 5.20703 9.41211 6.17383 9.41211 7.375C9.41211 8.60547 8.44531 9.57227 7.24414 9.57227ZM11.5215 3.88867C11.5215 3.44922 11.1699 3.09766 10.7305 3.09766C10.291 3.09766 9.93945 3.44922 9.93945 3.88867C9.93945 4.32812 10.291 4.67969 10.7305 4.67969C11.1699 4.67969 11.5215 4.32812 11.5215 3.88867ZM13.748 4.67969C13.6895 3.625 13.4551 2.6875 12.6934 1.92578C11.9316 1.16406 10.9941 0.929688 9.93945 0.871094C8.85547 0.8125 5.60352 0.8125 4.51953 0.871094C3.46484 0.929688 2.55664 1.16406 1.76562 1.92578C1.00391 2.6875 0.769531 3.625 0.710938 4.67969C0.652344 5.76367 0.652344 9.01562 0.710938 10.0996C0.769531 11.1543 1.00391 12.0625 1.76562 12.8535C2.55664 13.6152 3.46484 13.8496 4.51953 13.9082C5.60352 13.9668 8.85547 13.9668 9.93945 13.9082C10.9941 13.8496 11.9316 13.6152 12.6934 12.8535C13.4551 12.0625 13.6895 11.1543 13.748 10.0996C13.8066 9.01562 13.8066 5.76367 13.748 4.67969ZM12.3418 11.2422C12.1367 11.8281 11.668 12.2676 11.1113 12.502C10.2324 12.8535 8.18164 12.7656 7.24414 12.7656C6.27734 12.7656 4.22656 12.8535 3.37695 12.502C2.79102 12.2676 2.35156 11.8281 2.11719 11.2422C1.76562 10.3926 1.85352 8.3418 1.85352 7.375C1.85352 6.4375 1.76562 4.38672 2.11719 3.50781C2.35156 2.95117 2.79102 2.51172 3.37695 2.27734C4.22656 1.92578 6.27734 2.01367 7.24414 2.01367C8.18164 2.01367 10.2324 1.92578 11.1113 2.27734C11.668 2.48242 12.1074 2.95117 12.3418 3.50781C12.6934 4.38672 12.6055 6.4375 12.6055 7.375C12.6055 8.3418 12.6934 10.3926 12.3418 11.2422Z" fill="white"/>
</svg>
