<svg width="12" height="13" viewBox="0 0 12 13" fill="none" xmlns="http://www.w3.org/2000/svg">
<path d="M1.48379 3.77032C2.30314 3.77032 2.96734 3.10611 2.96734 2.28677C2.96734 1.46743 2.30314 0.803223 1.48379 0.803223C0.664452 0.803223 0.000244141 1.46743 0.000244141 2.28677C0.000244141 3.10611 0.664452 3.77032 1.48379 3.77032Z" fill="#FF5A3C"/>
<path d="M2.72008 4.76123H0.247502C0.111016 4.76123 0.000244141 4.872 0.000244141 5.00849V12.4262C0.000244141 12.5627 0.111016 12.6735 0.247502 12.6735H2.72008C2.85657 12.6735 2.96734 12.5627 2.96734 12.4262V5.00849C2.96734 4.872 2.85657 4.76123 2.72008 4.76123Z" fill="#FF5A3C"/>
<path d="M10.0883 4.34987C9.03151 3.98788 7.70966 4.30586 6.91695 4.87603C6.88975 4.76971 6.79283 4.69059 6.67761 4.69059H4.20502C4.06854 4.69059 3.95776 4.80136 3.95776 4.93785V12.3556C3.95776 12.4921 4.06854 12.6029 4.20502 12.6029H6.67761C6.81409 12.6029 6.92486 12.4921 6.92486 12.3556V7.02471C7.32443 6.68052 7.83923 6.57074 8.26055 6.74976C8.66902 6.92234 8.90293 7.34367 8.90293 7.90495V12.3556C8.90293 12.4921 9.0137 12.6029 9.15019 12.6029H11.6228C11.7593 12.6029 11.87 12.4921 11.87 12.3556V7.40697C11.8418 5.375 10.8859 4.62284 10.0883 4.34987Z" fill="#FF5A3C"/>
</svg>
