<svg width="18" height="17" viewBox="0 0 18 17" fill="none" xmlns="http://www.w3.org/2000/svg">
<path fill-rule="evenodd" clip-rule="evenodd" d="M5.17299 7.08341C5.17299 5.22521 6.67937 3.71883 8.53757 3.71883C10.3958 3.71883 11.9022 5.22521 11.9022 7.08341C11.9022 8.94162 10.3958 10.448 8.53757 10.448C6.67937 10.448 5.17299 8.94162 5.17299 7.08341ZM8.53757 4.78133C7.26617 4.78133 6.23549 5.81201 6.23549 7.08341C6.23549 8.35482 7.26617 9.3855 8.53757 9.3855C9.80898 9.3855 10.8397 8.35482 10.8397 7.08341C10.8397 5.81201 9.80898 4.78133 8.53757 4.78133Z" fill="#FF5A3C"/>
<path fill-rule="evenodd" clip-rule="evenodd" d="M2.534 6.27368C2.78498 3.22884 5.32942 0.885498 8.3846 0.885498H8.69055C11.7457 0.885498 14.2902 3.22884 14.5412 6.27368C14.676 7.90933 14.1707 9.53346 13.1319 10.804L9.73677 14.9561C9.11697 15.7141 7.95818 15.7141 7.33838 14.9561L3.9433 10.804C2.90442 9.53346 2.39918 7.90933 2.534 6.27368ZM8.3846 1.948C5.88238 1.948 3.79846 3.86721 3.59291 6.36097C3.4807 7.72227 3.9012 9.074 4.76583 10.1314L8.16092 14.2835C8.35559 14.5216 8.71956 14.5216 8.91424 14.2835L12.3093 10.1314C13.174 9.074 13.5945 7.72227 13.4822 6.36097C13.2767 3.86721 11.1928 1.948 8.69055 1.948H8.3846Z" fill="#FF5A3C"/>
</svg>
