<svg width="20" height="19" viewBox="0 0 20 19" fill="none" xmlns="http://www.w3.org/2000/svg">
<path fill-rule="evenodd" clip-rule="evenodd" d="M2.33643 6.61293C2.10297 8.67355 2.11338 11.0501 2.43823 13.1024C2.61798 14.2379 3.59354 15.1085 4.79776 15.2079L6.05629 15.3119C8.6805 15.5286 11.3195 15.5286 13.9438 15.3119L15.2023 15.2079C16.4065 15.1085 17.3821 14.2379 17.5618 13.1024C17.8867 11.0501 17.8971 8.67369 17.6636 6.61305C17.6335 6.37416 17.5995 6.13559 17.5618 5.89741C17.3821 4.76185 16.4065 3.8913 15.2023 3.79186L13.9438 3.68792C11.3195 3.47121 8.6805 3.47121 6.05629 3.68792L4.79776 3.79186C3.59354 3.8913 2.61798 4.76185 2.43823 5.89741C2.40054 6.13554 2.3666 6.37408 2.33643 6.61293ZM6.16454 4.87096C8.71672 4.6602 11.2833 4.6602 13.8355 4.87096L15.094 4.97489C15.7226 5.02681 16.2319 5.48124 16.3257 6.074C16.3355 6.13556 16.3449 6.19714 16.3541 6.25876L11.72 8.70457C10.6503 9.26911 9.34967 9.26911 8.28001 8.70457L3.64589 6.25879C3.65511 6.19716 3.66459 6.13557 3.67434 6.074C3.76816 5.48124 4.27741 5.02681 4.90602 4.97489L6.16454 4.87096ZM16.5071 7.53648C16.6687 9.33178 16.6083 11.1406 16.3257 12.9258C16.2319 13.5186 15.7226 13.973 15.094 14.0249L13.8355 14.1288C11.2833 14.3396 8.71671 14.3396 6.16454 14.1288L4.90602 14.0249C4.27741 13.973 3.76816 13.5186 3.67434 12.9258C3.39176 11.1406 3.33129 9.3318 3.49293 7.53651L7.67295 9.74263C9.12014 10.5064 10.8798 10.5064 12.327 9.74263L16.5071 7.53648Z" fill="#FF5A3C"/>
</svg>
