<svg width="15" height="15" viewBox="0 0 15 15" fill="none" xmlns="http://www.w3.org/2000/svg">
<path d="M14.6779 7.375C14.6779 3.36133 11.4259 0.109375 7.41223 0.109375C3.39856 0.109375 0.146606 3.36133 0.146606 7.375C0.146606 10.4805 2.0509 13.0879 4.74622 14.1426C4.68762 13.5859 4.62903 12.707 4.77551 12.0625C4.922 11.5059 5.62512 8.45898 5.62512 8.45898C5.62512 8.45898 5.42004 8.01953 5.42004 7.375C5.42004 6.37891 6.00598 5.61719 6.7384 5.61719C7.35364 5.61719 7.64661 6.08594 7.64661 6.64258C7.64661 7.25781 7.23645 8.19531 7.03137 9.07422C6.88489 9.77734 7.41223 10.3633 8.11536 10.3633C9.40442 10.3633 10.4005 9.01562 10.4005 7.05273C10.4005 5.29492 9.14075 4.09375 7.38293 4.09375C5.30286 4.09375 4.10168 5.64648 4.10168 7.22852C4.10168 7.87305 4.33606 8.54688 4.62903 8.89844C4.68762 8.95703 4.68762 9.04492 4.68762 9.10352C4.62903 9.33789 4.48254 9.83594 4.48254 9.92383C4.45325 10.0703 4.36536 10.0996 4.21887 10.041C3.31067 9.60156 2.75403 8.2832 2.75403 7.19922C2.75403 4.91406 4.42395 2.80469 7.55872 2.80469C10.0782 2.80469 12.0411 4.62109 12.0411 7.02344C12.0411 9.51367 10.4591 11.5352 8.26184 11.5352C7.52942 11.5352 6.82629 11.1543 6.59192 10.6855C6.59192 10.6855 6.24036 12.0918 6.15247 12.4141C5.97668 13.0586 5.53723 13.8496 5.24426 14.3184C5.91809 14.5527 6.65051 14.6406 7.41223 14.6406C11.4259 14.6406 14.6779 11.3887 14.6779 7.375Z" fill="white"/>
</svg>
