<svg width="16" height="16" viewBox="0 0 16 16" fill="none" xmlns="http://www.w3.org/2000/svg">
<path d="M15.5369 8C15.5369 3.71875 12.0682 0.25 7.78693 0.25C3.50568 0.25 0.0369263 3.71875 0.0369263 8C0.0369263 11.3125 2.06818 14.0938 4.94318 15.2188C4.88068 14.625 4.81818 13.6875 4.97443 13C5.13068 12.4062 5.88068 9.15625 5.88068 9.15625C5.88068 9.15625 5.66193 8.6875 5.66193 8C5.66193 6.9375 6.28693 6.125 7.06818 6.125C7.72443 6.125 8.03693 6.625 8.03693 7.21875C8.03693 7.875 7.59943 8.875 7.38068 9.8125C7.22443 10.5625 7.78693 11.1875 8.53693 11.1875C9.91193 11.1875 10.9744 9.75 10.9744 7.65625C10.9744 5.78125 9.63068 4.5 7.75568 4.5C5.53693 4.5 4.25568 6.15625 4.25568 7.84375C4.25568 8.53125 4.50568 9.25 4.81818 9.625C4.88068 9.6875 4.88068 9.78125 4.88068 9.84375C4.81818 10.0938 4.66193 10.625 4.66193 10.7188C4.63068 10.875 4.53693 10.9062 4.38068 10.8438C3.41193 10.375 2.81818 8.96875 2.81818 7.8125C2.81818 5.375 4.59943 3.125 7.94318 3.125C10.6307 3.125 12.7244 5.0625 12.7244 7.625C12.7244 10.2812 11.0369 12.4375 8.69318 12.4375C7.91193 12.4375 7.16193 12.0312 6.91193 11.5312C6.91193 11.5312 6.53693 13.0312 6.44318 13.375C6.25568 14.0625 5.78693 14.9062 5.47443 15.4062C6.19318 15.6562 6.97443 15.75 7.78693 15.75C12.0682 15.75 15.5369 12.2812 15.5369 8Z" fill="#071C1F"/>
</svg>
