<svg width="13" height="12" viewBox="0 0 13 12" fill="none" xmlns="http://www.w3.org/2000/svg">
<path d="M12.2204 2.0679C12.1392 1.97612 12.0083 1.95303 11.9009 2.00964C11.8341 2.04482 11.7085 2.09099 11.5595 2.1366C11.7476 1.87939 11.8988 1.59139 11.9656 1.33253C11.9944 1.22096 11.9522 1.10334 11.8603 1.03684C11.7684 0.970884 11.646 0.970884 11.5541 1.03684C11.4093 1.14071 10.7104 1.45289 10.2685 1.55402C9.26982 0.65431 8.10763 0.560876 6.89948 1.28636C5.91736 1.87609 5.70363 3.07533 5.7453 3.80631C3.49733 3.58372 2.10003 2.36249 1.31348 1.35176C1.25844 1.28086 1.16974 1.24349 1.08639 1.24899C0.998753 1.25558 0.919671 1.3056 0.874786 1.38309C0.502885 2.02888 0.399757 2.74282 0.577693 3.44797C0.674943 3.83269 0.844863 4.1718 1.04203 4.44661C0.947457 4.39879 0.856084 4.33888 0.770055 4.26743C0.690973 4.20038 0.580364 4.18774 0.486855 4.23226C0.393879 4.27788 0.334568 4.37461 0.334568 4.48068C0.334568 5.69147 1.07089 6.49939 1.75859 6.92149C1.64744 6.90775 1.53149 6.88247 1.41447 6.84564C1.31401 6.81432 1.20501 6.84564 1.13554 6.92699C1.06608 7.00778 1.04952 7.1232 1.0928 7.22158C1.47913 8.1004 2.21117 8.70497 3.11688 8.92426C2.32606 9.40187 1.26753 9.636 0.298232 9.52114C0.172662 9.503 0.0529699 9.58489 0.0134286 9.7091C-0.0261126 9.83331 0.0257185 9.96962 0.136327 10.0334C1.60683 10.8825 2.93627 11.1859 4.08511 11.1859C5.75706 11.1859 7.04749 10.544 7.83297 10.007C9.95057 8.56152 11.2704 5.96627 11.0866 3.64418C11.4259 3.38641 11.9335 2.91045 12.2482 2.39877C12.3134 2.29544 12.3017 2.15914 12.2204 2.0679Z" fill="#FF5A3C"/>
</svg>
