<svg width="16" height="13" viewBox="0 0 16 13" fill="none" xmlns="http://www.w3.org/2000/svg">
	<path d="M13.5338 3.32812C14.1198 2.88867 14.6471 2.36133 15.0573 1.74609C14.5299 1.98047 13.9147 2.15625 13.2994 2.21484C13.944 1.83398 14.4127 1.24805 14.6471 0.515625C14.0612 0.867188 13.3873 1.13086 12.7135 1.27734C12.1276 0.662109 11.3365 0.310547 10.4576 0.310547C8.75842 0.310547 7.38147 1.6875 7.38147 3.38672C7.38147 3.62109 7.41077 3.85547 7.46936 4.08984C4.92053 3.94336 2.63538 2.71289 1.11194 0.867188C0.848267 1.30664 0.701782 1.83398 0.701782 2.41992C0.701782 3.47461 1.22913 4.41211 2.07874 4.96875C1.58069 4.93945 1.08264 4.82227 0.672485 4.58789V4.61719C0.672485 6.11133 1.72717 7.3418 3.13342 7.63477C2.89905 7.69336 2.60608 7.75195 2.34241 7.75195C2.13733 7.75195 1.96155 7.72266 1.75647 7.69336C2.13733 8.92383 3.27991 9.80273 4.62756 9.83203C3.57288 10.6523 2.25452 11.1504 0.81897 11.1504C0.555298 11.1504 0.320923 11.1211 0.0865479 11.0918C1.4342 11.9707 3.04553 12.4688 4.80334 12.4688C10.4576 12.4688 13.5338 7.81055 13.5338 3.73828C13.5338 3.5918 13.5338 3.47461 13.5338 3.32812Z" fill="#FFFFFF" />
</svg>
