<svg width="16" height="13" viewBox="0 0 16 13" fill="none" xmlns="http://www.w3.org/2000/svg">
<path d="M13.5337 3.32812C14.1196 2.88867 14.647 2.36133 15.0571 1.74609C14.5298 1.98047 13.9146 2.15625 13.2993 2.21484C13.9438 1.83398 14.4126 1.24805 14.647 0.515625C14.061 0.867188 13.3872 1.13086 12.7134 1.27734C12.1274 0.662109 11.3364 0.310547 10.4575 0.310547C8.7583 0.310547 7.38135 1.6875 7.38135 3.38672C7.38135 3.62109 7.41064 3.85547 7.46924 4.08984C4.92041 3.94336 2.63525 2.71289 1.11182 0.867188C0.848145 1.30664 0.70166 1.83398 0.70166 2.41992C0.70166 3.47461 1.229 4.41211 2.07861 4.96875C1.58057 4.93945 1.08252 4.82227 0.672363 4.58789V4.61719C0.672363 6.11133 1.72705 7.3418 3.1333 7.63477C2.89893 7.69336 2.60596 7.75195 2.34229 7.75195C2.13721 7.75195 1.96143 7.72266 1.75635 7.69336C2.13721 8.92383 3.27979 9.80273 4.62744 9.83203C3.57275 10.6523 2.25439 11.1504 0.818848 11.1504C0.555176 11.1504 0.320801 11.1211 0.0864258 11.0918C1.43408 11.9707 3.04541 12.4688 4.80322 12.4688C10.4575 12.4688 13.5337 7.81055 13.5337 3.73828C13.5337 3.5918 13.5337 3.47461 13.5337 3.32812Z" fill="#FF5A3C"/>
</svg>
