<svg width="18" height="16" viewBox="0 0 18 16" fill="none" xmlns="http://www.w3.org/2000/svg">
<path d="M16.1367 4.59375C16.1601 4.6875 16.1718 4.83984 16.1718 5.05078C16.1718 6.29297 15.9374 7.53516 15.4687 8.77734C14.9999 9.99609 14.332 11.1211 13.4648 12.1523C12.621 13.1602 11.5195 13.9805 10.1601 14.6133C8.80072 15.2461 7.30072 15.5625 5.6601 15.5625C3.5976 15.5625 1.71088 15.0117 -6.10352e-05 13.9102C0.257751 13.9336 0.55072 13.9453 0.878845 13.9453C2.58978 13.9453 4.12494 13.418 5.48431 12.3633C4.664 12.3633 3.93744 12.1289 3.30463 11.6602C2.69525 11.168 2.27338 10.5586 2.039 9.83203C2.27338 9.85547 2.49603 9.86719 2.70697 9.86719C3.0351 9.86719 3.36322 9.83203 3.69135 9.76172C2.8476 9.57422 2.14447 9.14062 1.58197 8.46094C1.01947 7.78125 0.73822 7.00781 0.73822 6.14062V6.07031C1.25385 6.375 1.80463 6.53906 2.39056 6.5625C1.289 5.8125 0.73822 4.78125 0.73822 3.46875C0.73822 2.8125 0.914001 2.19141 1.26556 1.60547C2.17963 2.75391 3.29291 3.66797 4.60541 4.34766C5.94135 5.02734 7.35931 5.40234 8.85931 5.47266C8.81244 5.19141 8.789 4.91016 8.789 4.62891C8.789 3.62109 9.14056 2.75391 9.84369 2.02734C10.5703 1.30078 11.4374 0.9375 12.4453 0.9375C13.5234 0.9375 14.4257 1.32422 15.1523 2.09766C15.996 1.93359 16.7812 1.64062 17.5078 1.21875C17.2265 2.08594 16.6874 2.76562 15.8906 3.25781C16.5937 3.16406 17.2968 2.96484 17.9999 2.66016C17.4843 3.41016 16.8632 4.05469 16.1367 4.59375Z" fill="black" fill-opacity="0.9"/>
</svg>
