<svg width="12" height="13" viewBox="0 0 12 13" fill="none" xmlns="http://www.w3.org/2000/svg">
<path d="M5.50111 6.26191C5.92992 6.26599 6.35487 6.18644 6.74844 6.0284C7.14201 5.87037 7.49543 5.6374 7.78581 5.34454C8.39434 4.74539 8.73327 3.95309 8.73327 3.12972C8.73327 2.30635 8.39434 1.51409 7.78581 0.914939C7.49226 0.625988 7.13818 0.39579 6.74529 0.238435C6.35241 0.0810796 5.92902 -0.00012207 5.50111 -0.00012207C5.07321 -0.00012207 4.64981 0.0810796 4.25693 0.238435C3.86405 0.39579 3.50996 0.625988 3.21642 0.914939C2.60844 1.51435 2.2699 2.30651 2.2699 3.12972C2.2699 3.95293 2.60844 4.74512 3.21642 5.34454C3.5068 5.6374 3.86022 5.87037 4.25379 6.0284C4.64736 6.18644 5.07231 6.26599 5.50111 6.26191Z" fill="#FF5A3C"/>
<path d="M11.1542 9.99531C11.1336 9.71982 11.0976 9.44549 11.0462 9.17349C10.9952 8.89464 10.9256 8.61903 10.8377 8.34821C10.7489 8.08115 10.6315 7.82301 10.4873 7.57769C10.3463 7.33308 10.1682 7.10854 9.95848 6.91093C9.74256 6.71125 9.48653 6.55284 9.20488 6.44467C8.89706 6.33022 8.56808 6.27278 8.23649 6.27562C8.04174 6.29565 7.85839 6.37096 7.71147 6.49127C7.55321 6.59035 7.36984 6.70575 7.16385 6.83281C6.94253 6.96103 6.70447 7.06249 6.45545 7.13472C5.89515 7.3165 5.28497 7.3165 4.72466 7.13472C4.47603 7.06251 4.23839 6.96104 4.01753 6.83281L3.4699 6.49127C3.32285 6.37115 3.13957 6.29587 2.94489 6.27562C2.61329 6.27269 2.28429 6.33013 1.9765 6.44467C1.69493 6.55298 1.43891 6.71137 1.22289 6.91093C1.01354 7.10859 0.835886 7.33313 0.695364 7.57769C0.551094 7.82301 0.433697 8.08115 0.344936 8.34821C0.25646 8.61888 0.186816 8.89453 0.136437 9.17349C0.0852104 9.44555 0.0487377 9.71985 0.0271611 9.99531C0.00957683 10.2448 0.000784835 10.5024 0.000784835 10.7635C-0.0136099 11.0629 0.0376327 11.362 0.15141 11.6425C0.265187 11.923 0.439131 12.1791 0.662706 12.3954C0.888318 12.5974 1.15562 12.7549 1.44854 12.8585C1.74145 12.962 2.05391 13.0095 2.36712 12.9981H8.82681C9.14002 13.0095 9.45248 12.962 9.74539 12.8585C10.0383 12.7549 10.3056 12.5974 10.5312 12.3954C10.7552 12.1794 10.9294 11.9233 11.0432 11.6427C11.1571 11.3621 11.2081 11.063 11.1931 10.7635C11.1818 10.5012 11.168 10.2424 11.1542 9.99531Z" fill="#FF5A3C"/>
</svg>
