<svg width="13" height="12" viewBox="0 0 13 12" fill="none" xmlns="http://www.w3.org/2000/svg">
<path d="M7.12085 11.5907C8.05254 11.4689 8.87025 10.5371 9.38441 9.16798C8.6404 9.00942 7.88208 8.92453 7.12085 8.91461V11.5907Z" fill="#FF5A3C"/>
<path d="M8.61108 11.3738L8.77585 11.3263L8.91215 11.2825L9.07197 11.2277L9.20703 11.1765L9.3619 11.1144L9.49571 11.0559L9.64558 10.9865L9.77569 10.9219L9.92065 10.8452L10.0445 10.7733L10.1858 10.6905L10.3097 10.6125L10.446 10.5212L10.5698 10.4384L10.7024 10.3397L10.8176 10.2508C10.861 10.2167 10.9031 10.1801 10.9415 10.1448L11.0518 10.0498C11.0939 10.0133 11.1336 9.97429 11.1757 9.93653C11.2178 9.89877 11.2463 9.87076 11.281 9.83665L11.2996 9.81718C10.8252 9.58346 10.3268 9.40011 9.81285 9.27026C9.54084 10.0924 9.06182 10.8336 8.42029 11.425L8.47356 11.4128L8.61108 11.3738Z" fill="#FF5A3C"/>
<path d="M12.9963 6.00391H10.3846C10.3746 6.97675 10.2265 7.94346 9.94476 8.87607C10.5183 9.0221 11.0729 9.23259 11.5975 9.50337C12.4528 8.5264 12.9459 7.29318 12.9963 6.00511V6.00391Z" fill="#FF5A3C"/>
<path d="M7.12085 5.58827H9.95061C9.93946 4.64988 9.79517 3.71761 9.52193 2.81842C8.73356 2.98973 7.92942 3.08115 7.1221 3.09126L7.12085 5.58827Z" fill="#FF5A3C"/>
<path d="M7.12085 -0.00012207V2.67959C7.88208 2.66967 8.6404 2.58479 9.38441 2.42624C8.87025 1.05715 8.05377 0.130209 7.12085 0.00353207V-0.00012207Z" fill="#FF5A3C"/>
<path d="M7.12329 8.5009C7.93061 8.51106 8.73477 8.60248 9.52314 8.77374C9.79635 7.87455 9.94062 6.9423 9.95181 6.00391H7.12329V8.5009Z" fill="#FF5A3C"/>
<path d="M11.5975 2.08984C11.0729 2.36063 10.5184 2.57112 9.94476 2.71714C10.2265 3.64975 10.3746 4.61647 10.3846 5.58931H12.9963C12.9458 4.30127 12.4527 3.06808 11.5975 2.09106V2.08984Z" fill="#FF5A3C"/>
<path d="M11.3058 1.77482L11.2872 1.75533C11.2525 1.72123 11.2166 1.68834 11.1819 1.65545C11.1472 1.62257 11.1014 1.57872 11.058 1.54218C11.0146 1.50563 10.9849 1.48005 10.9477 1.44839C10.9105 1.41672 10.8635 1.37652 10.8238 1.34241C10.7842 1.30831 10.747 1.28273 10.7098 1.2535C10.6727 1.22426 10.6219 1.1865 10.5773 1.15483L10.4534 1.07201C10.4075 1.04034 10.3617 1.00989 10.3159 0.979435L10.192 0.902698L10.0495 0.818652L9.9256 0.748005L9.77939 0.67005L9.64933 0.605494L9.49692 0.534847L9.36436 0.477598L9.20578 0.415477L9.07073 0.36432L8.91091 0.309507L8.7746 0.264439L8.60983 0.216935L8.47356 0.180394L8.42029 0.168213C9.06177 0.759594 9.54079 1.5008 9.81285 2.32295C10.3294 2.19331 10.8303 2.00955 11.307 1.77482H11.3058Z" fill="#FF5A3C"/>
<path d="M0.809998 5.58809H3.42169C3.43177 4.61525 3.5798 3.64855 3.86152 2.71592C3.28791 2.56997 2.73333 2.35948 2.20877 2.08862C1.3532 3.06591 0.860081 4.2996 0.809998 5.58809H0.809998Z" fill="#FF5A3C"/>
<path d="M6.68634 11.5919V8.91223C5.92511 8.92215 5.16681 9.007 4.42279 9.16556C4.93695 10.5383 5.75341 11.4652 6.68634 11.5919Z" fill="#FF5A3C"/>
<path d="M6.68019 6.00391H3.85168C3.86282 6.9423 4.0071 7.87456 4.28036 8.77374C5.06872 8.60238 5.87286 8.51095 6.68019 8.5009V6.00391Z" fill="#FF5A3C"/>
<path d="M6.68634 -0.00012207C5.75465 0.121683 4.93695 1.05349 4.42279 2.42258C5.1668 2.5812 5.9251 2.66607 6.68634 2.67594V-0.00012207Z" fill="#FF5A3C"/>
<path d="M6.68019 3.09126C5.87287 3.08115 5.06873 2.98972 4.28036 2.81842C4.00709 3.7176 3.8628 4.64987 3.85168 5.58826H6.68019V3.09126Z" fill="#FF5A3C"/>
<path d="M5.38683 0.168213L5.33355 0.180393L5.19603 0.218153L5.0325 0.265657L4.89497 0.310725L4.73515 0.365537L4.6001 0.416695L4.44523 0.478816L4.31143 0.537282L4.16151 0.606712L4.03143 0.671268L3.88647 0.748005L3.76258 0.81987L3.62134 0.902698L3.49744 0.980653L3.36116 1.07201L3.23726 1.15483C3.19266 1.1865 3.15054 1.22061 3.10469 1.2535C3.05885 1.28638 3.02664 1.31196 2.98947 1.34241C2.95231 1.37287 2.90399 1.41184 2.86558 1.44717C2.82717 1.48249 2.79124 1.50929 2.75408 1.54217C2.71691 1.57506 2.6723 1.61769 2.63018 1.65545C2.58806 1.69321 2.55956 1.72123 2.52487 1.75533L2.50629 1.77482C2.98065 2.00863 3.47906 2.19197 3.99302 2.32173C4.26482 1.5001 4.74341 0.759323 5.38435 0.168213H5.38683Z" fill="#FF5A3C"/>
<path d="M2.62522 9.93538C2.66611 9.97314 2.70576 10.0121 2.74912 10.0486L2.85939 10.1424C2.90151 10.1778 2.94363 10.2143 2.98328 10.2484L3.09726 10.3373C3.14062 10.3714 3.18399 10.4043 3.23107 10.4372L3.35496 10.52L3.49248 10.6126L3.61638 10.6893L3.75886 10.7734L3.88275 10.844L4.02895 10.9208L4.15904 10.9853L4.31142 11.056L4.44399 11.1132L4.6001 11.1754L4.73514 11.2265L4.89497 11.2813L5.03126 11.3252L5.19603 11.3727L5.33232 11.4104L5.38559 11.4226C4.7441 10.8312 4.26508 10.09 3.99302 9.26788C3.479 9.39803 2.9806 9.58176 2.50629 9.81598L2.52487 9.8355C2.5546 9.8696 2.58929 9.90249 2.62522 9.93538Z" fill="#FF5A3C"/>
<path d="M2.20877 9.50213C2.73336 9.23135 3.28793 9.02086 3.86152 8.87483C3.5798 7.94221 3.43177 6.97552 3.42169 6.00269H0.809998C0.860178 7.29115 1.35328 8.52479 2.20877 9.50213Z" fill="#FF5A3C"/>
</svg>
