<svg width="18" height="12" viewBox="0 0 18 12" fill="none" xmlns="http://www.w3.org/2000/svg">
<path d="M17.1932 1.90625C17.0057 1.15625 16.4119 0.5625 15.6932 0.375C14.3494 0 9.03693 0 9.03693 0C9.03693 0 3.69318 0 2.34943 0.375C1.63068 0.5625 1.03693 1.15625 0.849426 1.90625C0.474426 3.21875 0.474426 6.03125 0.474426 6.03125C0.474426 6.03125 0.474426 8.8125 0.849426 10.1562C1.03693 10.9062 1.63068 11.4688 2.34943 11.6562C3.69318 12 9.03693 12 9.03693 12C9.03693 12 14.3494 12 15.6932 11.6562C16.4119 11.4688 17.0057 10.9062 17.1932 10.1562C17.5682 8.8125 17.5682 6.03125 17.5682 6.03125C17.5682 6.03125 17.5682 3.21875 17.1932 1.90625ZM7.28693 8.5625V3.5L11.7244 6.03125L7.28693 8.5625Z" fill="#FF5A3C"/>
</svg>
