<svg width="21" height="14" viewBox="0 0 21 14" fill="none" xmlns="http://www.w3.org/2000/svg">
<path d="M19.7477 2.60933C19.8649 3.05464 19.9469 3.66402 19.9938 4.43745C20.0641 5.21089 20.111 5.87886 20.1344 6.44136V7.24995C20.1344 9.35933 20.0055 10.9179 19.7477 11.9257C19.5133 12.7929 18.9391 13.3554 18.025 13.6132C17.5797 13.7304 16.736 13.8242 15.4938 13.8945C14.2516 13.9414 13.1149 13.9765 12.0836 14H10.5367C6.52893 14 4.03284 13.871 3.04846 13.6132C2.1344 13.3554 1.56018 12.7929 1.32581 11.9257C1.20862 11.4804 1.11487 10.871 1.04456 10.0976C0.997681 9.30074 0.962524 8.63277 0.939087 8.0937V7.24995C0.939087 5.16402 1.06799 3.61714 1.32581 2.60933C1.44299 2.18745 1.65393 1.82417 1.95862 1.51949C2.26331 1.2148 2.62659 1.00386 3.04846 0.886673C3.49377 0.769485 4.33752 0.687454 5.57971 0.640579C6.8219 0.570267 7.95862 0.523392 8.98987 0.499954H10.5367C14.5446 0.499954 17.0406 0.62886 18.025 0.886673C18.4469 1.00386 18.8102 1.2148 19.1149 1.51949C19.4196 1.82417 19.6305 2.18745 19.7477 2.60933ZM8.56799 10.1328L13.5953 7.24995L8.56799 4.4023V10.1328Z" fill="#071C1F"/>
</svg>
