<svg width="17" height="12" viewBox="0 0 17 12" fill="none" xmlns="http://www.w3.org/2000/svg">
<path d="M16.0859 2.53711C15.9102 1.83398 15.3535 1.27734 14.6797 1.10156C13.4199 0.75 8.43945 0.75 8.43945 0.75C8.43945 0.75 3.42969 0.75 2.16992 1.10156C1.49609 1.27734 0.939453 1.83398 0.763672 2.53711C0.412109 3.76758 0.412109 6.4043 0.412109 6.4043C0.412109 6.4043 0.412109 9.01172 0.763672 10.2715C0.939453 10.9746 1.49609 11.502 2.16992 11.6777C3.42969 12 8.43945 12 8.43945 12C8.43945 12 13.4199 12 14.6797 11.6777C15.3535 11.502 15.9102 10.9746 16.0859 10.2715C16.4375 9.01172 16.4375 6.4043 16.4375 6.4043C16.4375 6.4043 16.4375 3.76758 16.0859 2.53711ZM6.79883 8.77734V4.03125L10.959 6.4043L6.79883 8.77734Z" fill="white"/>
</svg>
